ply
format ascii 1.0
element vertex 168
property float x
property float y
property float z
property uchar red
property uchar green
property uchar blue
element face 56
property list uchar int vertex_indices
end_header
0.92 0.0 0.0 33 167 132
5.633375276077825e-17 0.92 0.0 33 167 132
0.6505382386916236 -0.6505382386916239 0.0 33 167 132
0.8886517601859429 0.23811352149431908 0.0 68 1 84
0.92 0.0 0.0 68 1 84
0.6505382386916236 -0.6505382386916239 0.0 68 1 84
0.7967433714816836 0.45999999999999996 0.0 71 43 122
0.8886517601859429 0.23811352149431908 0.0 71 43 122
0.6505382386916236 -0.6505382386916239 0.0 71 43 122
0.6505382386916237 0.6505382386916236 0.0 57 84 139
0.7967433714816836 0.45999999999999996 0.0 57 84 139
0.6505382386916236 -0.6505382386916239 0.0 57 84 139
0.46000000000000013 0.7967433714816835 0.0 41 121 142
0.6505382386916237 0.6505382386916236 0.0 41 121 142
0.6505382386916236 -0.6505382386916239 0.0 41 121 142
0.23811352149431908 0.8886517601859429 0.0 30 153 138
0.46000000000000013 0.7967433714816835 0.0 30 153 138
0.6505382386916236 -0.6505382386916239 0.0 30 153 138
5.633375276077825e-17 0.92 0.0 51 182 121
0.23811352149431908 0.8886517601859429 0.0 51 182 121
0.6505382386916236 -0.6505382386916239 0.0 51 182 121
-0.238113521494319 0.8886517601859429 0.0 170 219 50
-0.7967433714816836 0.45999999999999996 0.0 170 219 50
0.7967433714816834 -0.4600000000000004 0.0 170 219 50
-0.4599999999999998 0.7967433714816836 0.0 194 223 34
-0.8886517601859428 0.23811352149431936 0.0 194 223 34
0.7967433714816834 -0.4600000000000004 0.0 194 223 34
-0.6505382386916236 0.6505382386916237 0.0 194 223 34
-0.92 1.126675055215565e-16 0.0 194 223 34
0.7967433714816834 -0.4600000000000004 0.0 194 223 34
-0.7967433714816836 0.45999999999999996 0.0 170 219 50
-0.8886517601859429 -0.23811352149431914 0.0 170 219 50
0.7967433714816834 -0.4600000000000004 0.0 170 219 50
-0.8886517601859428 0.23811352149431936 0.0 202 224 30
-0.238113521494319 0.8886517601859429 0.0 202 224 30
0.7967433714816834 -0.4600000000000004 0.0 202 224 30
-0.92 1.126675055215565e-16 0.0 212 225 26
-0.4599999999999998 0.7967433714816836 0.0 212 225 26
0.7967433714816834 -0.4600000000000004 0.0 212 225 26
-0.8886517601859429 -0.23811352149431914 0.0 202 224 30
-0.6505382386916236 0.6505382386916237 0.0 202 224 30
0.7967433714816834 -0.4600000000000004 0.0 202 224 30
-0.7967433714816837 -0.45999999999999974 0.0 39 173 128
-0.4600000000000004 -0.7967433714816834 0.0 39 173 128
0.8886517601859427 -0.23811352149431986 0.0 39 173 128
-0.6505382386916241 -0.6505382386916234 0.0 32 143 140
-0.238113521494319 -0.8886517601859429 0.0 32 143 140
0.8886517601859427 -0.23811352149431986 0.0 32 143 140
-0.4600000000000004 -0.7967433714816834 0.0 46 109 142
-1.6900125828233474e-16 -0.92 0.0 46 109 142
0.8886517601859427 -0.23811352149431986 0.0 46 109 142
-0.238113521494319 -0.8886517601859429 0.0 62 73 137
0.2381135214943187 -0.8886517601859429 0.0 62 73 137
0.8886517601859427 -0.23811352149431986 0.0 62 73 137
-1.6900125828233474e-16 -0.92 0.0 72 33 114
0.46000000000000013 -0.7967433714816835 0.0 72 33 114
0.8886517601859427 -0.23811352149431986 0.0 72 33 114
0.2381135214943187 -0.8886517601859429 0.0 32 164 133
-0.7967433714816837 -0.45999999999999974 0.0 32 164 133
0.8886517601859427 -0.23811352149431986 0.0 32 164 133
0.46000000000000013 -0.7967433714816835 0.0 35 137 141
-0.6505382386916241 -0.6505382386916234 0.0 35 137 141
0.8886517601859427 -0.23811352149431986 0.0 35 137 141
0.8886517601859429 0.23811352149431908 0.0 30 153 138
-0.4599999999999998 0.7967433714816836 0.0 30 153 138
0.92 0.0 0.0 30 153 138
0.7967433714816836 0.45999999999999996 0.0 51 182 121
-0.7967433714816836 0.45999999999999996 0.0 51 182 121
0.8886517601859429 0.23811352149431908 0.0 51 182 121
0.6505382386916237 0.6505382386916236 0.0 100 203 93
-0.92 1.126675055215565e-16 0.0 100 203 93
0.7967433714816836 0.45999999999999996 0.0 100 203 93
0.46000000000000013 0.7967433714816835 0.0 68 1 84
-0.238113521494319 0.8886517601859429 0.0 68 1 84
0.6505382386916237 0.6505382386916236 0.0 68 1 84
0.23811352149431908 0.8886517601859429 0.0 71 43 122
-0.6505382386916236 0.6505382386916237 0.0 71 43 122
0.46000000000000013 0.7967433714816835 0.0 71 43 122
5.633375276077825e-17 0.92 0.0 57 84 139
-0.8886517601859428 0.23811352149431936 0.0 57 84 139
0.23811352149431908 0.8886517601859429 0.0 57 84 139
0.92 0.0 0.0 212 225 26
-0.8886517601859429 -0.23811352149431914 0.0 212 225 26
5.633375276077825e-17 0.92 0.0 212 225 26
-0.4599999999999998 0.7967433714816836 0.0 253 231 36
-0.6505382386916241 -0.6505382386916234 0.0 253 231 36
0.92 0.0 0.0 253 231 36
-0.7967433714816836 0.45999999999999996 0.0 253 231 36
-1.6900125828233474e-16 -0.92 0.0 253 231 36
0.8886517601859429 0.23811352149431908 0.0 253 231 36
-0.92 1.126675055215565e-16 0.0 170 219 50
-0.7967433714816837 -0.45999999999999974 0.0 170 219 50
0.7967433714816836 0.45999999999999996 0.0 170 219 50
-0.238113521494319 0.8886517601859429 0.0 212 225 26
-0.238113521494319 -0.8886517601859429 0.0 212 225 26
0.6505382386916237 0.6505382386916236 0.0 212 225 26
-0.6505382386916236 0.6505382386916237 0.0 207 225 28
0.46000000000000013 -0.7967433714816835 0.0 207 225 28
0.46000000000000013 0.7967433714816835 0.0 207 225 28
-0.8886517601859428 0.23811352149431936 0.0 116 208 84
-0.4600000000000004 -0.7967433714816834 0.0 116 208 84
0.23811352149431908 0.8886517601859429 0.0 116 208 84
-0.8886517601859429 -0.23811352149431914 0.0 212 225 26
0.2381135214943187 -0.8886517601859429 0.0 212 225 26
5.633375276077825e-17 0.92 0.0 212 225 26
-0.6505382386916241 -0.6505382386916234 0.0 32 164 133
0.46000000000000013 -0.7967433714816835 0.0 32 164 133
0.92 0.0 0.0 32 164 133
-1.6900125828233474e-16 -0.92 0.0 39 173 128
-0.4600000000000004 -0.7967433714816834 0.0 39 173 128
0.8886517601859429 0.23811352149431908 0.0 39 173 128
-0.7967433714816837 -0.45999999999999974 0.0 170 219 50
0.2381135214943187 -0.8886517601859429 0.0 170 219 50
0.7967433714816836 0.45999999999999996 0.0 170 219 50
-0.238113521494319 -0.8886517601859429 0.0 170 219 50
-0.6505382386916241 -0.6505382386916234 0.0 170 219 50
0.6505382386916237 0.6505382386916236 0.0 170 219 50
0.46000000000000013 -0.7967433714816835 0.0 85 198 102
-1.6900125828233474e-16 -0.92 0.0 85 198 102
0.46000000000000013 0.7967433714816835 0.0 85 198 102
-0.4600000000000004 -0.7967433714816834 0.0 134 212 73
-0.7967433714816837 -0.45999999999999974 0.0 134 212 73
0.23811352149431908 0.8886517601859429 0.0 134 212 73
0.2381135214943187 -0.8886517601859429 0.0 181 221 43
-0.238113521494319 -0.8886517601859429 0.0 181 221 43
5.633375276077825e-17 0.92 0.0 181 221 43
0.46000000000000013 -0.7967433714816835 0.0 119 208 82
-0.8886517601859429 -0.23811352149431914 0.0 119 208 82
0.92 0.0 0.0 119 208 82
-0.4600000000000004 -0.7967433714816834 0.0 253 231 36
-0.4599999999999998 0.7967433714816836 0.0 253 231 36
0.8886517601859429 0.23811352149431908 0.0 253 231 36
0.2381135214943187 -0.8886517601859429 0.0 253 231 36
-0.7967433714816836 0.45999999999999996 0.0 253 231 36
0.7967433714816836 0.45999999999999996 0.0 253 231 36
-0.6505382386916241 -0.6505382386916234 0.0 170 219 50
-0.92 1.126675055215565e-16 0.0 170 219 50
0.6505382386916237 0.6505382386916236 0.0 170 219 50
-1.6900125828233474e-16 -0.92 0.0 194 223 34
-0.238113521494319 0.8886517601859429 0.0 194 223 34
0.46000000000000013 0.7967433714816835 0.0 194 223 34
-0.7967433714816837 -0.45999999999999974 0.0 32 164 133
-0.6505382386916236 0.6505382386916237 0.0 32 164 133
0.23811352149431908 0.8886517601859429 0.0 32 164 133
-0.238113521494319 -0.8886517601859429 0.0 116 208 84
-0.8886517601859428 0.23811352149431936 0.0 116 208 84
5.633375276077825e-17 0.92 0.0 116 208 84
-0.8886517601859428 0.23811352149431936 0.0 66 190 113
-0.238113521494319 -0.8886517601859429 0.0 66 190 113
-0.238113521494319 0.8886517601859429 0.0 66 190 113
-0.92 1.126675055215565e-16 0.0 48 104 141
-0.6505382386916241 -0.6505382386916234 0.0 48 104 141
-0.4599999999999998 0.7967433714816836 0.0 48 104 141
-0.8886517601859429 -0.23811352149431914 0.0 119 208 82
0.46000000000000013 -0.7967433714816835 0.0 119 208 82
-0.6505382386916236 0.6505382386916237 0.0 119 208 82
-0.238113521494319 0.8886517601859429 0.0 126 210 78
-1.6900125828233474e-16 -0.92 0.0 126 210 78
-0.7967433714816836 0.45999999999999996 0.0 126 210 78
-0.4599999999999998 0.7967433714816836 0.0 35 137 141
-0.4600000000000004 -0.7967433714816834 0.0 35 137 141
-0.8886517601859428 0.23811352149431936 0.0 35 137 141
-0.6505382386916236 0.6505382386916237 0.0 72 33 114
-0.7967433714816837 -0.45999999999999974 0.0 72 33 114
-0.92 1.126675055215565e-16 0.0 72 33 114
-0.7967433714816836 0.45999999999999996 0.0 33 167 132
0.2381135214943187 -0.8886517601859429 0.0 33 167 132
-0.8886517601859429 -0.23811352149431914 0.0 33 167 132
3 0 1 2
3 3 4 5
3 6 7 8
3 9 10 11
3 12 13 14
3 15 16 17
3 18 19 20
3 21 22 23
3 24 25 26
3 27 28 29
3 30 31 32
3 33 34 35
3 36 37 38
3 39 40 41
3 42 43 44
3 45 46 47
3 48 49 50
3 51 52 53
3 54 55 56
3 57 58 59
3 60 61 62
3 63 64 65
3 66 67 68
3 69 70 71
3 72 73 74
3 75 76 77
3 78 79 80
3 81 82 83
3 84 85 86
3 87 88 89
3 90 91 92
3 93 94 95
3 96 97 98
3 99 100 101
3 102 103 104
3 105 106 107
3 108 109 110
3 111 112 113
3 114 115 116
3 117 118 119
3 120 121 122
3 123 124 125
3 126 127 128
3 129 130 131
3 132 133 134
3 135 136 137
3 138 139 140
3 141 142 143
3 144 145 146
3 147 148 149
3 150 151 152
3 153 154 155
3 156 157 158
3 159 160 161
3 162 163 164
3 165 166 167
